<?xml version="1.0" encoding="utf-8"?>
<!-- Generator: Adobe Illustrator 15.0.0, SVG Export Plug-In . SVG Version: 6.00 Build 0)  -->
<!DOCTYPE svg PUBLIC "-//W3C//DTD SVG 1.1//EN" "http://www.w3.org/Graphics/SVG/1.1/DTD/svg11.dtd">
<svg version="1.1" id="Layer_1" xmlns="http://www.w3.org/2000/svg" xmlns:xlink="http://www.w3.org/1999/xlink" x="0px" y="0px"
	 width="100px" height="100px" viewBox="0 0 100 100" enable-background="new 0 0 100 100" xml:space="preserve">
<g>
	<path d="M41.443,49.72c0,2.985,3.453,4.154,7.314,4.973c1.638,0.352,3.335,0.645,4.915,0.996c2.886-0.907,4.432-2.983,4.432-5.499
		c0-2.984-3.453-4.155-7.314-4.974c-1.638-0.352-3.334-0.643-4.914-0.995C43.592,45.238,41.365,48,41.443,49.72z"/>
	<path d="M48.917,19.471c-4.096,0-5.735,3.569-5.735,7.255c0,3.628,1.697,7.197,6.027,7.197c4.213,0,5.852-3.276,5.852-6.729
		C55.062,23.45,53.13,19.471,48.917,19.471z"/>
	<path d="M49.773,1.181C22.837,1.181,1,23.018,1,49.955c0,26.938,21.837,48.773,48.773,48.773c26.938,0,48.773-21.836,48.773-48.773
		C98.547,23.018,76.711,1.181,49.773,1.181z M60.151,27.193c0,5.501-5.266,8.778-11.118,8.778c-0.994,0-1.931-0.058-2.867-0.235
		c-0.409,0.47-1.463,1.64-1.463,2.458c0,1.58,3.51,1.99,8.075,2.926c4.916,0.994,10.18,2.632,10.18,7.372
		c0,3.475-3.716,5.854-7.534,7.58l-0.083-0.019c2.617,0.702,4.593,1.746,4.593,3.672c0,2.456-3.394,3.627-5.499,4.738
		c3.919,1.112,7.021,3.921,7.021,8.603c0,6.086-5.149,9.421-10.941,9.421c-3.395,0-4.8-1.171-7.725-1.171h-2.81
		c-1.872,0-3.861,0.761-3.861,0.761l0.526-3.802h3.101c1.29,0,2.049,0.174,2.049,0.174s-2.399-2.047-2.399-5.734
		c0-5.5,5.267-8.776,11.119-8.776c0.994,0,1.93,0.058,2.869,0.233c0.408-0.468,1.46-1.639,1.46-2.458
		c0-1.579-3.512-1.988-8.075-2.925c-4.916-0.995-10.181-2.633-10.181-7.373c0.006-4.397,4.479-5.736,7.882-7.488
		c-2.75-0.701-4.857-1.755-4.857-3.744c0-2.458,3.395-3.628,5.501-4.74c-3.921-1.112-7.021-3.921-7.021-8.602
		c0-6.085,5.15-9.422,10.942-9.422c3.396,0,4.798,1.171,7.724,1.171h2.809c1.873,0,3.862-0.76,3.862-0.76L62.9,21.635h-3.1
		c-1.288,0-2.049-0.175-2.049-0.175S60.151,23.508,60.151,27.193z"/>
	<path d="M44.485,72.716c0,3.746,1.931,7.724,6.144,7.724c4.097,0,5.736-3.568,5.736-7.256c0-3.628-1.697-7.196-6.027-7.196
		C46.124,65.987,44.485,69.263,44.485,72.716z"/>
</g>
</svg>
